<svg width="30" height="22" viewBox="0 0 30 22" fill="none" xmlns="http://www.w3.org/2000/svg">
    <mask id="path-1-inside-1_0_266" fill="white">
        <path d="M0 0L12.8217 13.5397C14.0051 14.7894 15.9949 14.7894 17.1783 13.5397L30 0"/>
    </mask>
    <path d="M1.08915 -1.03139C0.519526 -1.63291 -0.429869 -1.65877 -1.03139 -1.08915C-1.63291 -0.519526 -1.65877 0.429869 -1.08915 1.03139L1.08915 -1.03139ZM31.0891 1.03139C31.6588 0.429869 31.6329 -0.519526 31.0314 -1.08915C30.4299 -1.65877 29.4805 -1.63291 28.9109 -1.03139L31.0891 1.03139ZM17.1783 13.5397L16.0891 12.5083L17.1783 13.5397ZM-1.08915 1.03139L11.7326 14.5711L13.9109 12.5083L1.08915 -1.03139L-1.08915 1.03139ZM18.2674 14.5711L31.0891 1.03139L28.9109 -1.03139L16.0891 12.5083L18.2674 14.5711ZM11.7326 14.5711C13.5076 16.4456 16.4924 16.4456 18.2674 14.5711L16.0891 12.5083C15.4975 13.1332 14.5025 13.1332 13.9109 12.5083L11.7326 14.5711Z" fill="#FF4B32" mask="url(#path-1-inside-1_0_266)"/>
    <path d="M29 21.12L20.5 11.968M1 21.12L9.5 11.968" stroke="#FF4B32" stroke-width="1.5" stroke-linecap="round" stroke-linejoin="round"/>
    <rect x="0.75" y="0.75" width="28.5" height="20.5" stroke="#FF4B32" stroke-width="1.5"/>
</svg>
