<svg width="30" height="30" viewBox="0 0 30 30" fill="none" xmlns="http://www.w3.org/2000/svg">
    <path d="M27.6316 30C28.2597 30 28.8621 29.7505 29.3063 29.3063C29.7505 28.8621 30 28.2597 30 27.6316V22.1053C30 21.4771 29.7505 20.8747 29.3063 20.4305C28.8621 19.9864 28.2597 19.7368 27.6316 19.7368C25.7842 19.7368 23.9684 19.4526 22.2316 18.8684C21.8163 18.7374 21.3731 18.7225 20.95 18.8255C20.5269 18.9285 20.1401 19.1454 19.8316 19.4526L17.5579 21.7263C13.63 19.5826 10.4016 16.3543 8.2579 12.4263L10.5158 10.1684C11.1632 9.55263 11.4 8.63684 11.1158 7.75263C10.5474 6.03158 10.2632 4.21579 10.2632 2.36842C10.2632 1.74028 10.0136 1.13786 9.56946 0.693695C9.1253 0.249529 8.52288 0 7.89474 0H2.36842C1.74028 0 1.13786 0.249529 0.693695 0.693695C0.249529 1.13786 0 1.74028 0 2.36842C0 17.6053 12.3947 30 27.6316 30ZM2.36842 1.57895H7.89474C8.10412 1.57895 8.30492 1.66212 8.45298 1.81018C8.60103 1.95823 8.68421 2.15904 8.68421 2.36842C8.68421 4.38947 9 6.36316 9.61579 8.24211C9.69474 8.46316 9.67895 8.77895 9.42632 9.03158L6.31579 12.1263C8.92105 17.2263 12.7421 21.0474 17.8579 23.6842L20.9368 20.5737C21.1579 20.3526 21.4579 20.2895 21.7421 20.3684C23.6368 21 25.6105 21.3158 27.6316 21.3158C27.841 21.3158 28.0418 21.399 28.1898 21.547C28.3379 21.6951 28.4211 21.8959 28.4211 22.1053V27.6316C28.4211 27.841 28.3379 28.0418 28.1898 28.1898C28.0418 28.3379 27.841 28.4211 27.6316 28.4211C13.2632 28.4211 1.57895 16.7368 1.57895 2.36842C1.57895 2.15904 1.66212 1.95823 1.81018 1.81018C1.95823 1.66212 2.15904 1.57895 2.36842 1.57895Z" fill="#FF4B32"/>
</svg>
