<svg width="30" height="30" viewBox="0 0 30 30" fill="none" xmlns="http://www.w3.org/2000/svg">
<path id="Vector" d="M15 0C12.0333 0 9.13319 0.879734 6.66645 2.52795C4.19971 4.17618 2.27713 6.51886 1.14181 9.25975C0.00649901 12.0006 -0.290551 15.0166 0.288228 17.9264C0.867006 20.8361 2.29562 23.5088 4.3934 25.6066C6.49119 27.7044 9.16393 29.133 12.0736 29.7118C14.9834 30.2905 17.9994 29.9935 20.7403 28.8582C23.4811 27.7229 25.8238 25.8003 27.472 23.3335C29.1203 20.8668 30 17.9667 30 15C29.9953 11.0232 28.4135 7.21059 25.6014 4.39856C22.7894 1.58652 18.9768 0.00467037 15 0ZM15.8824 28.2059V18.2353H19.7059C19.9399 18.2353 20.1643 18.1423 20.3298 17.9769C20.4953 17.8114 20.5882 17.587 20.5882 17.3529C20.5882 17.1189 20.4953 16.8945 20.3298 16.729C20.1643 16.5635 19.9399 16.4706 19.7059 16.4706H15.8824V12.6471C15.8824 11.945 16.1612 11.2717 16.6577 10.7753C17.1541 10.2789 17.8274 10 18.5294 10H20.8824C21.1164 10 21.3408 9.90704 21.5063 9.74156C21.6717 9.57609 21.7647 9.35166 21.7647 9.11764C21.7647 8.88363 21.6717 8.6592 21.5063 8.49373C21.3408 8.32825 21.1164 8.23529 20.8824 8.23529H18.5294C17.3593 8.23529 16.2372 8.7001 15.4098 9.52747C14.5825 10.3548 14.1177 11.477 14.1177 12.6471V16.4706H10.2941C10.0601 16.4706 9.83568 16.5635 9.6702 16.729C9.50473 16.8945 9.41177 17.1189 9.41177 17.3529C9.41177 17.587 9.50473 17.8114 9.6702 17.9769C9.83568 18.1423 10.0601 18.2353 10.2941 18.2353H14.1177V28.2059C10.6915 27.977 7.48843 26.4254 5.18486 23.879C2.88129 21.3325 1.65755 17.9905 1.77208 14.5586C1.8866 11.1267 3.33042 7.8737 5.79863 5.48648C8.26684 3.09926 11.5662 1.76474 15 1.76474C18.4338 1.76474 21.7332 3.09926 24.2014 5.48648C26.6696 7.8737 28.1134 11.1267 28.2279 14.5586C28.3425 17.9905 27.1187 21.3325 24.8151 23.879C22.5116 26.4254 19.3085 27.977 15.8824 28.2059Z" fill="#FF4B32"/>
</svg>
