<svg width="30" height="30" viewBox="0 0 30 30" fill="none" xmlns="http://www.w3.org/2000/svg">
<g id="Group 1363">
<path id="Vector" d="M25.804 30H4.19604C3.08318 30 2.0159 29.5579 1.22899 28.771C0.442081 27.9841 0 26.9168 0 25.804V4.19604C0 3.08318 0.442081 2.0159 1.22899 1.22899C2.0159 0.442081 3.08318 0 4.19604 0H25.804C26.9168 0 27.9841 0.442081 28.771 1.22899C29.5579 2.0159 30 3.08318 30 4.19604V25.804C30 26.9168 29.5579 27.9841 28.771 28.771C27.9841 29.5579 26.9168 30 25.804 30ZM4.19604 1.67842C3.52832 1.67842 2.88796 1.94366 2.41581 2.41581C1.94366 2.88796 1.67842 3.52832 1.67842 4.19604V25.804C1.67842 26.4717 1.94366 27.112 2.41581 27.5842C2.88796 28.0563 3.52832 28.3216 4.19604 28.3216H25.804C26.4717 28.3216 27.112 28.0563 27.5842 27.5842C28.0563 27.112 28.3216 26.4717 28.3216 25.804V4.19604C28.3216 3.52832 28.0563 2.88796 27.5842 2.41581C27.112 1.94366 26.4717 1.67842 25.804 1.67842H4.19604Z" fill="#FF4B32"/>
<path id="Vector_2" d="M15.0008 22.7108C13.4757 22.7091 11.9854 22.2553 10.7182 21.4068C9.45097 20.5583 8.46377 19.3531 7.88138 17.9436C7.29899 16.5341 7.14755 14.9836 7.44622 13.4881C7.74488 11.9926 8.48024 10.6191 9.55932 9.54146C10.6384 8.46378 12.0128 7.73022 13.5087 7.43351C15.0046 7.1368 16.5549 7.29026 17.9637 7.87449C19.3724 8.45872 20.5763 9.44749 21.4232 10.7158C22.27 11.9841 22.7218 13.4751 22.7215 15.0001C22.7188 17.046 21.9042 19.0073 20.4566 20.453C19.009 21.8987 17.0467 22.7108 15.0008 22.7108ZM15.0008 8.95783C13.8081 8.95949 12.6427 9.31457 11.6517 9.97823C10.6607 10.6419 9.88865 11.5843 9.433 12.6865C8.97735 13.7887 8.85856 15.0013 9.09165 16.1709C9.32474 17.3406 9.89924 18.415 10.7426 19.2583C11.5859 20.1017 12.6603 20.6762 13.83 20.9093C14.9997 21.1424 16.2122 21.0236 17.3144 20.5679C18.4166 20.1123 19.3591 19.3402 20.0227 18.3492C20.6864 17.3582 21.0414 16.1928 21.0431 15.0001C21.0431 13.3976 20.4065 11.8607 19.2734 10.7276C18.1402 9.59443 16.6033 8.95783 15.0008 8.95783Z" fill="#FF4B32"/>
<path id="Vector_3" d="M23.7262 8.12715C24.7227 8.12715 25.5305 7.31934 25.5305 6.32285C25.5305 5.32637 24.7227 4.51855 23.7262 4.51855C22.7297 4.51855 21.9219 5.32637 21.9219 6.32285C21.9219 7.31934 22.7297 8.12715 23.7262 8.12715Z" fill="#FF4B32"/>
</g>
</svg>
